<?xml version="1.0" encoding="UTF-8"?>
<svg id="Layer_2" data-name="Layer 2" xmlns="http://www.w3.org/2000/svg" viewBox="0 0 744.97 163.14">
  <defs>
    <style>
      .cls-1 {
        fill: #2eb5d0;
      }
    </style>
  </defs>
  <g id="Layer_1-2" data-name="Layer 1">
    <g>
      <path class="cls-1" d="M15.01,24.06C27.15,8.17,41.72,0,58.94,0c25.61,0,43.49,17.66,43.49,54.53v65.78h-15.01v-63.8c0-27.59-8.61-42.83-31.35-42.83-12.58,0-22.96,5.52-30.9,15.9-8.83,11.48-10.15,22.96-10.15,41.5v49.23H0V3.09h15.01v20.97Z"/>
      <path class="cls-1" d="M144.58,62.92c.66,26.93,18.99,46.58,44.15,46.58s36.2-13.91,44.81-28.04l12.58,6.62c-11.92,23.4-30.24,35.1-55.85,35.1-38.85,0-61.15-29.8-61.15-61.15S152.75,0,189.39,0c33.33,0,60.27,24.06,60.71,62.92h-105.52ZM233.54,49.67c-6.18-24.28-23.62-35.1-43.93-35.1s-36.64,11.26-43.49,35.1h87.42Z"/>
      <path class="cls-1" d="M363.33,3.09h15.89v60.71c0,39.51-17.88,59.38-51.43,59.38s-51.66-19.87-51.66-59.38V3.09h15.9v57.17c0,12.36,0,22.52,3.31,29.58,5.52,11.92,17.66,18.76,32.45,18.76,10.82,0,20.31-3.97,26.49-10.38,9.27-9.93,9.05-21.19,9.05-37.97V3.09Z"/>
      <path class="cls-1" d="M422.25,20.09c8.83-12.8,18.32-20.09,30.24-20.09,6.84,0,10.37,2.21,13.47,3.97l-7.95,12.8c-1.77-.88-4.64-2.21-7.95-2.21-11.04,0-20.97,9.49-25.39,25.61-1.99,7.51-2.43,19.65-2.43,35.54v44.59h-15.9V3.09h15.9v17Z"/>
      <path class="cls-1" d="M594.65,62.03c0,33.33-25.83,61.37-61.15,61.37s-61.15-28.04-61.15-61.37S498.41,0,533.51,0s61.15,28.48,61.15,62.03ZM487.81,62.25c0,25.61,19.21,46.58,45.69,46.58s45.7-20.97,45.7-46.58-20.75-47.68-45.7-47.68-45.69,21.63-45.69,47.68Z"/>
      <path class="cls-1" d="M637.69,24.51c11.7-16.34,27.81-24.51,46.58-24.51,34.22,0,60.71,28.04,60.71,61.37s-25.83,61.81-60.27,61.81c-18.32,0-34.22-7.51-47.02-22.96v62.91h-15.01V3.09h15.01v21.41ZM636.59,62.25c0,29.14,22.51,47.24,46.58,47.24,26.05,0,46.36-22.08,46.36-47.68s-19.43-47.24-46.36-47.24-46.58,20.53-46.58,47.68Z"/>
    </g>
  </g>
</svg>