<?xml version="1.0" encoding="UTF-8"?>
<svg id="Layer_2" data-name="Layer 2" xmlns="http://www.w3.org/2000/svg" viewBox="0 0 393.26 369.78">
  <defs>
    <style>
      .cls-1 {
        fill: #2eb5d0;
      }
    </style>
  </defs>
  <g id="Layer_1-2" data-name="Layer 1">
    <g>
      <g>
        <path class="cls-1" d="M75.96,306.96c-6.63,0-12.24,3.15-16.92,9.27v-8.08h-5.78v45.14h5.78v-18.95c0-7.15.51-11.57,3.91-15.99,3.06-3.99,7.06-6.12,11.9-6.12,8.76,0,12.07,5.87,12.07,16.49v24.57h5.78v-25.33c0-14.2-6.88-21-16.74-21Z"/>
        <path class="cls-1" d="M125.93,349.13c-9.69,0-16.74-7.57-17-17.94h40.64c-.17-14.96-10.54-24.23-23.38-24.23-14.11,0-23.21,11.56-23.21,23.89s8.59,23.55,23.55,23.55c9.86,0,16.92-4.51,21.51-13.52l-4.85-2.55c-3.31,5.44-7.82,10.8-17.26,10.8ZM126.27,312.57c7.83,0,14.54,4.17,16.92,13.52h-33.66c2.63-9.18,8.67-13.52,16.74-13.52Z"/>
        <path class="cls-1" d="M193.17,308.15v22.02c0,6.46.09,10.8-3.49,14.62-2.38,2.47-6.03,4-10.2,4-5.69,0-10.37-2.64-12.49-7.23-1.28-2.72-1.28-6.63-1.28-11.39v-22.02h-6.12v23.38c0,15.22,6.97,22.87,19.89,22.87s19.81-7.65,19.81-22.87v-23.38h-6.12Z"/>
        <path class="cls-1" d="M227.51,306.96c-4.59,0-8.25,2.81-11.65,7.74v-6.55h-6.12v45.14h6.12v-17.17c0-6.12.17-10.8.94-13.69,1.7-6.2,5.52-9.86,9.77-9.86,1.28,0,2.38.51,3.06.85l3.06-4.93c-1.19-.68-2.55-1.53-5.18-1.53Z"/>
        <path class="cls-1" d="M258.7,306.96c-13.51,0-23.54,10.97-23.54,23.89s9.94,23.63,23.54,23.63,23.55-10.79,23.55-23.63-10.03-23.89-23.55-23.89ZM258.7,348.87c-10.2,0-17.59-8.07-17.59-17.93s7.9-18.37,17.59-18.37,17.6,8.33,17.6,18.37-7.48,17.93-17.6,17.93Z"/>
        <path class="cls-1" d="M316.76,306.96c-7.23,0-13.43,3.15-17.94,9.44v-8.25h-5.78v61.63h5.78v-24.22c4.93,5.95,11.05,8.84,18.11,8.84,13.26,0,23.2-10.97,23.2-23.81s-10.2-23.63-23.37-23.63ZM316.33,349.13c-9.26,0-17.93-6.97-17.93-18.19,0-10.46,7.82-18.37,17.93-18.37s17.85,8.5,17.85,18.2-7.82,18.36-17.85,18.36Z"/>
      </g>
      <g>
        <path class="cls-1" d="M229.91,12.07h-1.46c-2.68,0-5.38.21-8.01.62-13.93,2.19-26.48,10.17-34.42,21.9-.13.19-.24.38-.33.58-.54,1.22-1.22,2.42-2.08,3.69-.16.24-.32.47-.48.7l-.18.26s-.04.05-.05.07c-5.43,7.36-13.77,11.58-22.89,11.58-1.04,0-1.95-.11-2.84-.22-.85-.1-1.73-.34-2.65-.21-13.37,1.96-16.43,8.72-17.88,11.43-1.46,2-9.76,7.56-12.03,8.81-19.64,10.84-1.66,21.63-34.55,46.22-4.33,3.24-28.3,23.35-18.38,66.33-.68,1.95-1.28,3.92-1.8,5.84-.5,1.85-.94,3.83-1.32,5.86-.2.99-.38,2.06-.57,3.44-.57,3.87-.86,7.85-.86,11.82v.12c0,1.28.03,2.57.1,3.82.17,3.74.62,7.52,1.32,11.25.47,2.52,1.06,5.01,1.74,7.38-1.58.16-3.18.24-4.78.24-6.65,0-13.07-1.35-19.07-4.01-3.09-1.36-6.06-3.07-8.84-5.11,6.08-3.93,10.32-10.61,12.06-19.15,2.05-9.99.21-20.69-4.46-26.01-5.1-5.8-6.99-11.63-8.12-15.11-.45-1.37-.77-2.36-1.19-3.06-.33-.54-.77-.97-1.38-1.34-.62-.38-1.33-.56-2.03-.56-1.17,0-2.34.5-3.09,1.45-3.81,4.79-6.31,12.71,3.4,23.22,6.3,6.82,7.23,21.53,3.82,29.62-1.1,2.62-3.14,5.77-6.62,5.86h-.16c-.24,0-.62,0-1,0-.44-.01-.89-.01-1.2-.01h-.04l-3.26-.37c-7.54-1.79-7.74-2-16-10.69l-.99-1.04c-.27-.37-1.29-2-2.41-3.87-4.22-7.03-4.93-12.22-4.93-21.19,0-2.71.23-5.39.68-7.98.56-3.34,1.52-6.66,2.85-9.88.52,1.54.65,3.85.42,7.23-.54,7.85-.76,9.14-.91,9.99-.09.5-.16.92-.24,2.06-.04.56.13,1.09.51,1.59.72.94,1.85,1.49,3.04,1.49h.17c1.3-.06,2.5-.75,3.2-1.84.32-.5.52-.93.61-1.31.13-.5.3-1.1.49-1.78,1.11-3.89,2.97-10.41,1.62-16.44-.83-3.7-4.87-8.2-6.58-9.66-.26-2.03-.38-3.9-.38-5.69,0-2.74.23-5.44.68-8.03,1.47-8.62,5.33-16.67,11.16-23.27l.47-.42.48-.43c6.92-4.82,12.49-6.06,16.39-6.06,3.69,0,5.89,1.11,6.33,1.36.35.2.73.29,1.11.29.74,0,1.47-.37,1.89-1.03,1.17-1.82,1.7-4.58-.31-6.88-1.51-1.72-4.26-2.15-6.98-2.15-1.38,0-2.76.11-3.97.22-.99-6.94,3.29-14,7.1-20.27l.11-.19c.06-.1.11-.2.16-.31l.07-.17c.09-.22.18-.44.25-.67.05-.19.15-.73.16-.77.13-.65.31-1.25.54-1.76.61-1.34,1.37-2.37,2.33-3.17,5.3-4.39,14.99-9.75,25-9.75,6.13,0,12.37,2.01,17.82,7.45,4.82,4.82,6.9,9.47,6.18,13.81-1.64,9.8-16.55,17.37-18.24,18.19l-.16.08c-.48.24-.85.66-1.02,1.18-.17.51-.12,1.07.13,1.55l2.04,3.9c.49.93,1.31,1.61,2.32,1.92.38.12.77.18,1.15.18.64,0,1.27-.16,1.84-.47,5.93-3.15,19.93-11.88,22.09-24.83,1.3-7.81-1.74-15.48-9.05-22.79-3.19-3.19-4.57-6.38-4.22-9.78.74-7.39,9.15-14.3,11.7-16.25,1.63-1.23,2.03-3.55.9-5.26l-1.36-2.07c-.6-.9-1.54-1.52-2.6-1.71-.23-.04-.45-.06-.67-.06-.84,0-1.67.28-2.35.79-4.38,3.29-14.71,12.18-15.86,23.5-.08.72-.11,1.45-.11,2.17-1.06-.19-2.16-.28-3.28-.28-4.13,0-8.53,1.16-12.52,2.2-2.54.66-4.94,1.29-6.87,1.5,1.6-1.36,2.9-3.01,3.86-4.92,5.97-11.89,14.98-22.11,26.05-29.56,9.81-6.61,20.7-10.8,32.36-12.44.13-.01.27-.04.4-.07.11-.03.22-.07.32-.12,4.55-2.11,9.35-3.46,14.31-4.03,1.68-.21,3.47-.32,5.31-.33-5.44,4.72-9.2,8.81-11.17,12.14-.89,1.5-.9,3.31-.03,4.83.87,1.54,2.5,2.49,4.26,2.5h.13c2.05,0,3.9-1.27,4.6-3.18,1.82-4.95,7.23-13.59,15.94-14.53h.05c.22,0,.45.15.49.18.37.38.75.55,1.22.55.12,0,.25-.01.39-.04.2-.01.47-.05.79-.2,2.52-1.13,4.94-2.49,7.27-3.81,4.53-2.54,8.8-4.95,13.77-5.89.46-.06,1.85-.26,3.21-.88.18-.09.37-.17.52-.21,3.8-.96,7.74-1.45,11.69-1.45,4.55,0,9.08.65,13.46,1.93.18.06.37.1.57.12,8.74,1.06,16.97,4.52,23.83,10.02Z"/>
        <path class="cls-1" d="M203.22,270.13c-5.42,0-10.84-.57-16.11-1.69-8.08-1.71-15.69-4.64-22.64-8.68-2.11-1.18-4.17-2.52-6.14-3.99-1.19-1.4-2.61-2.12-4.16-2.12-1.04,0-2.08.33-3.09,1-.8.52-1.82.83-3.03.92-.32.03-.59.06-.82.09-.2-.32-.48-.82-.78-1.33-.32-.56-.71-1.26-1.21-2.1-1.6-2.73-2.1-5.92-2.54-8.73-.65-4.13-1.38-8.82-6.43-8.82-1.34,0-2.92.37-4.82,1.13-1.88.75-3.67,1.58-5.41,2.38-3.47,1.6-6.75,3.12-10.63,4.02-1.12.26-2.28.43-3.4.6-3.07.46-5.97.89-7.43,3.14-.89,1.39-1.02,3.14-.39,5.35.46,1.61,1.93,2.74,3.58,2.74.17,0,.34-.01.51-.04,7.93-1.06,17.03-2.69,24.38-6.78,1.14,4.4,2.66,8.57,4.51,12.4-3.96.82-7.86,1.24-11.59,1.24-13.62,0-25.23-5.41-33.57-15.65-10.35-12.71-14.23-31.57-10.4-50.51,3.19,1.75,6.47,3.2,9.65,4.6,4.36,1.92,8.47,3.74,12.37,6.26,5.17,3.34,10.34,4.9,16.26,4.9,1.32,0,2.7-.08,4.11-.24,9.1-1.02,17.52-5.81,23.71-13.48.73-.91,1.33-1.73,1.92-2.52,1.5-2.04,2.58-3.51,4.57-4.83,1.12-.75,2.5-1.31,3.95-1.91,1.62-.67,3.3-1.35,4.85-2.39,4.52-3.02,7.48-7.29,10.34-11.43,2.54-3.67,4.94-7.14,8.25-9.48,2.17-1.54,4.38-2.26,6.96-2.26,1.28,0,2.65.18,4.19.54.71.16,2.05.89,3.24,1.53,2.29,1.23,4.65,2.51,6.7,2.51.56,0,1.08-.09,1.55-.28,3.47-1.38,3.44-3.62,3.27-4.52-1.04-5.46-17.16-9.93-22.11-9.93-.66,0-1.23.05-1.72.17-7.8,1.76-11.5,7.2-15.07,12.47-1.28,1.89-2.6,3.84-4.11,5.62-3,3.54-7.03,5.29-10.92,6.98-3.11,1.35-6.06,2.63-8.51,4.75-2.45,2.1-4.07,4.66-5.63,7.14-1.96,3.1-3.82,6.03-7.2,7.99-3.75,2.16-8.78,3.5-13.11,3.5-2.09,0-3.98-.3-5.61-.88-2.39-.86-4.55-2.4-6.83-4.03-2.15-1.53-4.37-3.12-6.93-4.23-1.38-.6-2.71-1.13-3.99-1.65-5.46-2.2-9.78-3.93-12.85-8.45-8.48-12.44-7.1-30.37,3.67-47.97,4.32-7.05,9.04-10.62,14.51-14.75,2.42-1.83,4.92-3.72,7.61-6.06,3.52-3.07,4.99-7.41,6.41-11.61.78-2.29,1.51-4.46,2.55-6.42,3.71-6.99,9.26-12.75,18-18.67,2.59-1.76,4.92-3.49,7.16-5.16,6.84-5.1,12.75-9.5,22.42-11.58,13.38-2.86,21.61-10,30.33-17.56,4.24-3.68,8.61-7.48,13.71-10.83,16.48-10.85,30.7-15.91,44.74-15.91,9.49,0,18.73,1.7,27.56,5.05,2.16.83,4.19,1.87,6.34,2.98,1.68.87,3.43,1.77,5.23,2.55,5.79,2.47,7.91,2.91,14.2,2.93,6.71.03,13.26,1.99,19.6,3.88,2.82.84,5.73,1.71,8.65,2.41,8.54,2.04,14.72,4.75,20.05,8.77,6.8,5.13,12.08,11.98,15.27,19.82,1.03,2.52,1.55,5.78,2.04,8.93.74,4.71,1.45,9.15,3.81,12,1.42,1.7,3.22,2.76,4.97,3.78,2.04,1.2,3.97,2.32,5.21,4.43,1.11,1.9,1.66,4.12,2.23,6.46l.22.91c1.83,7.26,2.32,15.48,1.48,24.46-.94,9.91-3.69,19.36-8.19,28.07-.75,1.46-1.89,3.01-3.1,4.64-1.74,2.36-3.54,4.79-4.4,7.34-1.25,3.7-.54,5.81.36,8.48.28.82.59,1.75.89,2.85,3.71,13.52,1.04,27.14-7.51,38.36-8.93,11.71-22.89,18.71-37.32,18.71,0,0,0,0,0,0-5,0-9.96-.84-14.75-2.48,1.29-1.1,3.21-2.36,5.24-3.69,3.71-2.44,7.22-4.74,8.72-7.11,2.72-4.33,4.45-9.63,5.44-16.71l.08-.55c1.58-10.97,1.18-17.4-1.27-20.23-.95-1.1-2.2-1.67-3.62-1.67-.14,0-.28,0-.43.02-1.38.11-2.56.7-3.41,1.72-2.09,2.51-1.63,6.93-1.26,10.49.11,1.08.22,2.1.2,2.67-.57,13.81-4.34,21.26-12.99,25.7-1.19.6-2.06.94-2.75,1.2-2.53.96-3.36,1.63-5.08,5.54-.79,1.8-1.14,4.07-1.51,6.47-.81,5.26-1.62,9.06-4.71,10.03l-66.41,20.51c-.05.02-.11.04-.16.06-9.52,3.83-19.5,5.78-29.68,5.78ZM169.16,218.95c-.17,0-.34.01-.5.03-2.63.33-4.28,1.37-4.91,3.08-1.05,2.89,1.43,6.13,4,8.92,4.28,4.63,10.29,7.18,16.94,7.18,2.06,0,4.16-.24,6.25-.72,6.13-1.41,10.5-4.82,14.72-8.13,2.37-1.86,4.83-3.78,7.55-5.29,1.58-.87,3.44-1.34,5.4-1.84,2.25-.57,4.58-1.17,6.95-2.42,5.5-2.9,10.52-7.98,15.83-13.35,7.9-7.99,16.06-16.25,25.44-16.25.41,0,.82.02,1.23.05,2.75.21,4.79,1.17,6.07,2.86,1.41,1.87,1.83,4.66,1.18,7.85-.2.97-1.79,3.26-2.95,4.93-2.68,3.85-4.16,6.12-3.47,8.15.19.54,1.88,5.2,5.17,5.2.7,0,1.74-.23,2.74-1.3,7.46-8.02,10.52-20.69,6.97-28.85-2.57-5.89-8.23-9.14-15.94-9.14-.44,0-.9.01-1.36.03-12.54.58-21.46,9.3-30.08,17.73-4.06,3.97-7.89,7.72-12.01,10.57-2.67,1.84-4.2,2.13-6.14,2.5-.93.18-1.99.38-3.23.75-3.8,1.16-6.32,3.22-9.82,6.08-.78.63-1.61,1.31-2.51,2.03-4.57,3.6-11.41,8.4-18.01,8.4h0c-.88,0-1.74-.09-2.57-.26-1.62-.33-3.76-2.4-5.65-4.22-2.45-2.36-4.77-4.59-7.27-4.59ZM186.68,193.56c-.05.27-.12.63-.19.92-.44,2.09-1,4.69.42,6.43.48.6,1.39,1.31,2.95,1.31,1,0,2.17-.3,3.57-.91,2.12-.92,2.79-3.08,3.32-4.82.31-1.02.67-2.18,1.17-2.47.11-.07.61-.29,2.03-.29,1.25,0,2.74.16,4.19.32,1.48.16,2.88.31,4.11.31.52,0,.97-.03,1.38-.08,10.9-1.52,18.53-7.91,21.48-18,3.27-11.1.68-19.57-2.76-28.7-.43-1.14-.72-1.74-.89-2.1,0-.06.02-.12.03-.2.04-.3.09-.71.16-1.29.35-.45,1.42-1.32,2.02-1.8.72-.59,1.35-1.09,1.74-1.55,2.97-3.46,5.09-6.92,6.32-10.28.41-1.15.85-2.43,1.31-3.81,3.48-10.31,8.73-25.88,20.12-25.88.32,0,.64.01.97.04,6.46.47,9.44,7.98,12.59,15.92,2.92,7.34,5.93,14.94,12.19,18.13,1.57.8,4.79,1.65,7.67,1.65s4.66-.77,5.65-2.28c.6-.92,1.1-2.52.06-4.93-1.09-2.51-3.98-3.19-6.53-3.79-1.51-.35-3.07-.72-3.87-1.36-3.56-2.82-5.57-8.15-7.51-13.31-1.17-3.11-2.27-6.05-3.72-8.54-2.32-3.97-5.81-6.25-8.89-8.26-2.04-1.33-3.96-2.59-4.99-4.04-.69-.98-.93-3.62-1.13-5.74-.18-2.03-.36-3.94-.88-5.43-.69-1.96-1.68-3.55-2.65-5.08-.68-1.08-1.33-2.11-1.81-3.2-3.49-7.79-3.4-10.23-3.04-11.01,1.24-2.64,11.53-6.91,15.56-6.91h.17c6.34.33,11.66,6.85,13.15,8.84,1.4,1.89,2.78,6.63,4.25,11.64,3.21,11.01,6.85,23.49,15,24.52.16.02.33.03.49.03,1.29,0,2.48-.66,3.17-1.76.69-1.09.76-2.44.2-3.61l-2.7-5.66c-1.72-3.64-2.73-7.48-3.79-11.54-1.02-3.89-2.08-7.92-3.82-11.76-5.82-12.8-15.21-19.84-26.46-19.84-5.82,0-11.8,1.9-17.78,5.65-3.67-9.96-10.08-14.6-20.15-14.6-.27,0-.55,0-.83.01-.17,0-17.62,1.56-20.75,7.1-.74,1.3-.73,2.75.03,4.08,1.13,1.99,3.1,3,5.84,3,2.42,0,5.25-.76,8.24-1.56,3.25-.87,6.62-1.78,9.63-1.78s4.94.83,6.46,2.62c3.06,3.61,3.72,8.86,4.42,14.41.5,3.95,1.01,8.03,2.49,11.52.78,1.84,1.8,3.68,2.79,5.46,3.31,5.97,5.13,9.85,2.41,13.47-.76,1.02-2.74,2.22-4.49,3.28-1.74,1.06-3.54,2.15-4.79,3.37-3.12,3.09-6,6.77-8.13,10.39-2,3.4-3.05,6.93-4.06,10.35-.46,1.55-.94,3.15-1.49,4.7l-.37,1.04c-.9,2.56-1.5,4.25-3.21,6.6-2.37,3.25-3.06,4-3.69,4-.55,0-1.52-.27-2.74-.62l-.81-.23c-2.59-.72-5.04-1.98-7.63-3.32-4.25-2.19-8.65-4.45-14.03-4.45-.49,0-.98.02-1.48.06-.24.02-.51.04-.8.05-2.77.18-6.56.42-7.79,3.11-.72,1.56-.29,3.4,1.27,5.45,1.35,1.77,5.11,2.45,12.78,3.47,2.59.35,5.52.74,6.33,1.07,7.71,3.2,14.42,11.71,16.31,20.7,1.47,6.98-.15,13.36-4.56,17.96-3,3.13-7.38,4.72-13.02,4.72-6.68,0-13.58-2.18-18.19-4.01-.91-.33-1.64-.48-2.29-.48-1.22,0-2.21.56-2.72,1.55-.89,1.73-.38,4.44,4.97,12ZM97.93,159.34c-1.44,0-2.77.84-3.38,2.15-2.21,4.69-2.1,5.03-1.86,5.78,1.36,4.28,14.09,8.73,17.95,9.99,3.44,1.13,6.77,1.7,9.91,1.7,8.48,0,15.11-4.26,18.66-11.99,1.37-2.97,1.8-6.16,2.21-9.25.4-2.96.77-5.76,1.95-7.9.88-1.6,2.31-3.1,3.82-4.68,1.63-1.71,3.32-3.48,4.53-5.61,2.01-3.54,3.04-6.51,3.86-8.9,1.63-4.73,2.07-6,7.42-6,1.28,0,2.78.09,4.59.29,2.84.3,5.61.57,8.31.57,5.69,0,10.16-1.27,14.05-3.98,1.82-1.27,3.33-3.12,4.79-4.9,1.04-1.27,2.02-2.47,3.03-3.38,1.17-1.04,2.41-1.98,3.61-2.89,2.14-1.62,4.35-3.29,6.32-5.66,8.74-10.55,8.75-25.75.02-36.14-.73-.86-1.79-1.35-2.91-1.35-.86,0-1.71.3-2.38.84-4.68,3.83-2.92,6.67-1.38,9.19.71,1.16,1.52,2.47,2.11,4.25,3.14,9.6-2.7,16.8-8.33,21.24-1.65-8.68-8.02-16.68-16.72-20.95-.51-.25-1.08-.38-1.64-.38-1.39,0-2.67.75-3.33,1.96-3.04,5.56.24,7.67,2.88,9.37,1.21.78,2.59,1.66,3.85,2.99,3.02,3.17,5.81,9.16,5.23,13.72-.28,2.22-1.3,3.85-3.1,4.97-1.49.92-3.27,1.35-5.63,1.35s-4.93-.44-7.44-.86c-2.6-.44-5.28-.89-7.81-.89-.99,0-1.88.07-2.73.2-9.18,1.48-10.71,6.59-12.33,12-.61,2.03-1.24,4.13-2.3,6.35-1.15,2.4-3.08,4.3-5.11,6.31-1.87,1.84-3.8,3.75-5.09,6.09-1.54,2.8-1.79,6.13-2.03,9.35-.23,3-.46,6.1-1.74,8.63-2.73,5.39-6.03,6.01-8.28,6.01-4.5,0-9.8-2.89-14.93-5.68-2.54-1.39-4.95-2.69-7.23-3.64-.45-.19-.93-.28-1.41-.28ZM265.69,144.07c-.34,0-.69,0-1.03.02-3.08.14-6.37.61-7.33,3.07-1.01,2.57,1.5,5.11,2.32,5.94,1.91,1.94,6.41,2.84,12.56,3.9,1.87.32,3.64.63,4.58.91,2.95.87,5.85,1.97,8.66,3.03,6,2.28,11.66,4.43,17.75,4.43,4.47,0,8.63-1.18,12.72-3.61,14.56-8.68,23.24-24.73,21.61-39.94-.38-3.6-2.28-6.76-3.94-9.54-1.29-2.16-2.51-4.2-2.76-5.98-.22-1.56,1.65-3.55,3.3-5.31,2.07-2.21,4.42-4.71,3.13-7.47-1.37-2.93-3.35-3.54-4.77-3.54-2.8,0-5.44,2.37-7.76,4.46-.94.84-1.82,1.63-2.41,1.98-.67.4-1.63.71-2.64,1.04-2.66.87-7.11,2.32-6.41,7.37.49,3.5,3.82,5.13,6.76,6.56,1.85.9,3.76,1.84,4.63,3.05,3.32,4.6,3.25,11.94,2.08,17.28-2.14,9.74-12.75,23.9-24.5,23.9-.65,0-1.31-.05-1.95-.14-4.7-.68-9.48-2.92-14.55-5.29-6.42-3.01-13.07-6.11-20-6.11ZM357.98,114c-2.01,0-3.6.75-5,2.35-3,3.43-1.77,10.33-.69,16.42l.17.97c.02.11,2.16,11.35,5.82,11.35.61,0,1.19-.25,1.63-.69.75-.77,1-2,.94-4.53-.06-2.44-.15-4.48-.23-6.2-.18-3.97-.28-6.37.27-7.36.45-.8,1.87-1.35,5.05-2.52l1.64-.61c.36-.14.7-.32.99-.54,2.32-1.75,2.43-3.37,2.11-4.43-.67-2.25-3.96-3.59-9.77-3.97-.39-.03-.76-.07-1.12-.1-.59-.06-1.19-.13-1.81-.13ZM110.86,122.78c-4.61,0-5.84,1.57-6.06,2.89-.46,2.79,3.46,4.12,5.14,4.7.59.2,1.08.36,1.49.5q1.92.63,4,2.29c.41.33.9.72,1.48,1.18l1.74,1.37c.63.5,1.38.76,2.16.76,1,0,1.96-.43,2.63-1.18.67-.75.98-1.73.87-2.74-.32-2.72-.52-5.64.09-8.68,1.76-8.56,6.24-10.18,13.02-12.64,1.53-.55,3.11-1.13,4.78-1.83.24-.1.54-.2.85-.31,1.62-.56,3.83-1.33,4.39-3.38.34-1.24-.05-2.53-1.15-3.83-.93-1.09-2.42-1.65-4.43-1.65-4.63,0-11.3,2.86-12.7,3.57-7.33,3.7-12.33,10.89-13.71,19.53-1.46-.35-3.05-.54-4.59-.54Z"/>
      </g>
    </g>
  </g>
</svg>